<svg width="32" height="32" viewBox="0 0 32 32" fill="none" xmlns="http://www.w3.org/2000/svg">
<g style="mix-blend-mode:multiply" clip-path="url(#clip0_7002_405)">
<path fill-rule="evenodd" clip-rule="evenodd" d="M13.8827 6.22372C14.9985 5.78662 16.0119 5.38962 16.5022 4.45089C17.0476 3.40667 16.5481 1.81676 16.5481 1.81676C16.5481 1.81676 18.4079 3.31643 19.2357 5.47155C19.7236 5.06798 20.1046 4.61642 20.2725 4.02027C20.5919 2.88632 19.7766 1.43283 19.7766 1.43283C19.7766 1.43283 25.0935 3.97652 24.4894 8.80961C24.0864 12.0338 22.493 13.2175 22.0052 13.5086C22.8135 13.5258 24.0284 13.7691 25.3134 14.806C25.3134 14.806 23.9583 15.4835 22.9834 16.1241L24.4521 19.45L27.0174 25.2594C27.86 27.1676 28.2781 29.1407 28.3199 31.0819C28.331 31.5947 27.9063 32 27.3934 32H2.97044C2.66893 32 2.38416 31.858 2.20757 31.6137C1.08929 30.066 0.280891 28.6331 0 27.4627C3.43752 27.8875 6.98761 27.1356 9.31992 24.8445C7.00653 25.5067 4.54979 24.7896 4.54979 24.7896C4.54979 24.7896 6.13999 24.291 6.68537 23.2468C7.17566 22.3081 6.92246 21.2496 6.64368 20.0841C6.30225 18.6567 5.92245 17.069 6.82316 15.3444C8.4593 12.2118 10.5489 13.3032 10.5489 13.3032C10.5489 13.3032 8.4593 12.2118 10.0954 9.07911C10.9961 7.35455 12.5162 6.75906 13.8827 6.22372ZM18.8657 16.7164C19.5251 16.7164 20.0597 16.1818 20.0597 15.5224C20.0597 14.8629 19.5251 14.3284 18.8657 14.3284C18.2062 14.3284 17.6716 14.8629 17.6716 15.5224C17.6716 16.1818 18.2062 16.7164 18.8657 16.7164ZM31.0444 19.8209C31.7264 18.4497 31.1676 16.7852 29.7964 16.1033C28.6265 15.5215 25.2884 16.1156 24.3334 16.3026C24.2 16.3288 24.1297 16.4703 24.1893 16.5924C24.6165 17.4668 26.1569 20.4871 27.3268 21.069C28.6981 21.7509 30.3625 21.1921 31.0444 19.8209Z" fill="#3A2124"/>
</g>
<defs>
<clipPath id="clip0_7002_405">
<rect width="32" height="32" fill="white"/>
</clipPath>
</defs>
</svg>
